Coordinates
version=1
nRows=26
nColumns=24
inDegrees=yes

Units are S.I. units (second, meters, Newtons, ...)
Angles are in degrees.

endheader
time	pelvis_tilt	pelvis_list	pelvis_rotation	pelvis_tx	pelvis_ty	pelvis_tz	hip_flexion_r	hip_adduction_r	hip_rotation_r	knee_angle_r	ankle_angle_r	subtalar_angle_r	mtp_angle_r	hip_flexion_l	hip_adduction_l	hip_rotation_l	knee_angle_l	ankle_angle_l	subtalar_angle_l	mtp_angle_l	lumbar_extension	lumbar_bending	lumbar_rotation
      0.85033333	      5.24873783	     -3.98763406	     10.03556388	     -0.49151985	      1.03864118	      0.34525731	      3.36023532	     10.53734371	     -2.91959434	    -12.54927439	      3.01624879	    -13.74997225	      2.98971538	     13.24901658	     -7.94614518	      1.35359308	    -66.56428149	     -2.18177799	     -6.15552872	      2.18919957	     -6.38857408	      0.91546335	     -3.39631430
      0.85450000	      5.23327370	     -3.84141523	      9.98358120	     -0.48674372	      1.03940660	      0.34558290	      2.91040084	     10.43650046	     -2.91178030	    -12.26599761	      3.15068208	    -13.54642137	      2.98155361	     13.71440414	     -7.69604038	      1.33512130	    -66.14020673	     -1.44492089	     -6.09687344	      2.11206227	     -6.46011381	      0.72952635	     -3.25469975
      0.85866667	      5.21353886	     -3.70164006	      9.91360288	     -0.48197133	      1.04011856	      0.34591521	      2.46980837	     10.33995299	     -2.89357253	    -11.99243678	      3.29846437	    -13.32042584	      2.97115160	     14.16843878	     -7.45347304	      1.29965725	    -65.66930392	     -0.75005529	     -6.04203449	      2.02254309	     -6.52033129	      0.55801712	     -3.08155198
      0.86283333	      5.16775905	     -3.55877442	      9.82204545	     -0.47719982	      1.04079314	      0.34625670	      2.06078984	     10.23513405	     -2.85432229	    -11.72788429	      3.40175644	    -13.15893257	      2.96497376	     14.62843449	     -7.20048505	      1.24632394	    -65.13907026	     -0.11791063	     -6.06969666	      1.98278600	     -6.55705595	      0.37041841	     -2.96498591
      0.86700000	      5.16189922	     -3.42532281	      9.71908318	     -0.47243592	      1.04148420	      0.34660174	      1.60356616	     10.14426680	     -2.81477931	    -11.45045395	      3.57159155	    -12.86961197	      2.94134699	     15.03033202	     -6.97080100	      1.18117963	    -64.56203045	      0.49282331	     -6.00945683	      1.84974388	     -6.62229663	      0.21972233	     -2.67326522
      0.87116667	      5.12168844	     -3.27911580	      9.59576810	     -0.46768810	      1.04209897	      0.34697354	      1.18852668	     10.03719145	     -2.72268670	    -11.18805826	      3.69461596	    -12.71379424	      2.93101796	     15.44757392	     -6.72056398	      1.10036076	    -63.92805799	      1.03762705	     -5.99095089	      1.80354009	     -6.67165266	      0.02744602	     -2.53688499
      0.87533333	      5.10612862	     -3.14398991	      9.45573715	     -0.46292491	      1.04271550	      0.34735302	      0.74401316	      9.94318440	     -2.62523361	    -10.91758604	      3.81950151	    -12.52368096	      2.91899434	     15.81928528	     -6.49513682	      0.99781006	    -63.24593192	      1.56388880	     -5.97718400	      1.75948037	     -6.73221082	     -0.13741628	     -2.32738033
      0.87950000	      5.09405317	     -3.02739560	      9.30775730	     -0.45816269	      1.04329476	      0.34774185	      0.29413431	      9.86886153	     -2.51857681	    -10.63494270	      3.96235193	    -12.31455747	      2.89777288	     16.17715816	     -6.29808963	      0.88184061	    -62.51948366	      2.04109116	     -5.95582312	      1.69580794	     -6.77826230	     -0.29404157	     -2.03406496
      0.88366667	      5.03105828	     -2.91103968	      9.14508488	     -0.45340692	      1.04376209	      0.34813512	     -0.09048972	      9.78436222	     -2.39748828	    -10.37089923	      4.05007077	    -12.16995831	      2.88924787	     16.57466840	     -6.08933669	      0.75845428	    -61.74921708	      2.48006556	     -6.02491776	      1.67710156	     -6.77369915	     -0.46058422	     -1.91264050
      0.88783333	      5.04524815	     -2.77287493	      8.94960955	     -0.44866317	      1.04433898	      0.34856626	     -0.56153269	      9.68560057	     -2.23668636	    -10.11683526	      4.20814310	    -11.95586802	      2.85846948	     16.84829130	     -5.88090536	      0.60328841	    -60.90219421	      2.88094595	     -5.99971862	      1.61433564	     -6.86431538	     -0.61183564	     -1.49826042
      0.89200000	      4.98481597	     -2.64658600	      8.74260533	     -0.44393256	      1.04474796	      0.34900120	     -0.93396402	      9.58431675	     -2.06883644	     -9.89049804	      4.31826593	    -11.81756861	      2.84082977	     17.19607489	     -5.67397798	      0.43776490	    -60.02279538	      3.25275041	     -6.04704834	      1.58584710	     -6.87703673	     -0.77216059	     -1.31341741
      0.89616667	      4.98497664	     -2.53411655	      8.53426581	     -0.43917521	      1.04522648	      0.34944470	     -1.39113477	      9.50771897	     -1.88606774	     -9.61840431	      4.44941364	    -11.64013437	      2.80513531	     17.45830135	     -5.50186078	      0.26273504	    -59.08815846	      3.57198843	     -6.08433555	      1.53469580	     -6.92733640	     -0.91528045	     -0.93606710
      0.90033333	      4.94104747	     -2.42413156	      8.30515091	     -0.43444067	      1.04557919	      0.34990052	     -1.78147756	      9.42139399	     -1.68711857	     -9.38501859	      4.55967584	    -11.48666983	      2.76038357	     17.75348379	     -5.32673653	      0.07532839	    -58.11576306	      3.87220387	     -6.15436539	      1.47996391	     -6.94545591	     -1.06021609	     -0.61257200
      0.90450000	      4.91469001	     -2.31658111	      8.06638319	     -0.42969431	      1.04593953	      0.35037306	     -2.19293636	      9.33886083	     -1.47461457	     -9.14552954	      4.68213371	    -11.35209446	      2.71827302	     18.00733196	     -5.16682370	     -0.13198977	    -57.08798189	      4.12472252	     -6.22722944	      1.43237410	     -6.96865186	     -1.19813119	     -0.31769975
      0.90866667	      4.87124411	     -2.21932884	      7.81944764	     -0.42495375	      1.04622374	      0.35084804	     -2.57713220	      9.26080332	     -1.25250145	     -8.92022626	      4.79894468	    -11.22617876	      2.67720613	     18.26600238	     -5.01777692	     -0.34212148	    -56.02059005	      4.34802423	     -6.31498474	      1.38931377	     -6.97250885	     -1.32382692	     -0.02239307
      0.91283333	      4.83220967	     -2.12107575	      7.56127694	     -0.42021084	      1.04647979	      0.35133219	     -2.96485286	      9.17863729	     -1.01707128	     -8.69653697	      4.91288437	    -11.09617416	      2.62666538	     18.49751630	     -4.87107531	     -0.56162999	    -54.90324708	      4.53357844	     -6.43129705	      1.33770890	     -6.98407307	     -1.45350254	      0.32316752
      0.91700000	      4.79074892	     -2.02465135	      7.29500574	     -0.41546363	      1.04670760	      0.35181559	     -3.34593096	      9.09388896	     -0.76963339	     -8.47972986	      5.02645679	    -10.97468440	      2.57209802	     18.71047312	     -4.72928836	     -0.78950054	    -53.73622354	      4.68211606	     -6.56688043	      1.28185260	     -6.98998319	     -1.57956113	      0.65474057
      0.92116667	      4.73473479	     -1.93989119	      7.02403566	     -0.41071010	      1.04685599	      0.35231098	     -3.70348101	      9.01708971	     -0.52244432	     -8.27579120	      5.15444149	    -10.86580480	      2.52096533	     18.92578740	     -4.60424604	     -1.02507914	    -52.53231890	      4.79647378	     -6.71299961	      1.22748397	     -6.96785207	     -1.69443891	      0.96385410
      0.92533333	      4.66490826	     -1.86101934	      6.73864683	     -0.40597685	      1.04694387	      0.35280834	     -4.03205866	      8.93968608	     -0.25737542	     -8.09781237	      5.27654761	    -10.76227373	      2.48203859	     19.13792401	     -4.48642195	     -1.27063189	    -51.28633589	      4.89744215	     -6.86061878	      1.18282516	     -6.95049805	     -1.80251658	      1.22369629
      0.92950000	      4.61348656	     -1.79716213	      6.47214244	     -0.40119539	      1.04703109	      0.35326728	     -4.39942560	      8.87875090	     -0.00584381	     -7.87484050	      5.39706402	    -10.65325096	      2.42481621	     19.31400611	     -4.38301347	     -1.49884581	    -49.99668648	      4.93921107	     -7.07273654	      1.11635354	     -6.91258511	     -1.89019838	      1.60959497
      0.93366667	      4.54627281	     -1.72906023	      6.18936778	     -0.39642868	      1.04705814	      0.35374099	     -4.73422616	      8.80652983	      0.25996807	     -7.68576672	      5.52294223	    -10.54911467	      2.36481347	     19.48465598	     -4.27694569	     -1.73931098	    -48.66106826	      4.96609115	     -7.28286514	      1.04365391	     -6.87346747	     -1.98283512	      1.94102899
      0.93783333	      4.46814930	     -1.67202213	      5.90990535	     -0.39165229	      1.04701475	      0.35419985	     -5.05432967	      8.74211081	      0.52488535	     -7.49947811	      5.64961700	    -10.44781092	      2.29812322	     19.65305079	     -4.18103026	     -1.97529956	    -47.29125151	      4.96955694	     -7.51638343	      0.96009566	     -6.81868402	     -2.06118771	      2.27726274
      0.94200000	      4.37521100	     -1.62653237	      5.62882007	     -0.38687319	      1.04690465	      0.35465621	     -5.34992127	      8.68617399	      0.78939006	     -7.32735959	      5.78944385	    -10.35932810	      2.23772294	     19.82374571	     -4.10014603	     -2.22023767	    -45.88783869	      4.95517321	     -7.75010765	      0.87910762	     -6.74502725	     -2.12788721	      2.57033386
      0.94616667	      4.29841503	     -1.58594693	      5.35519838	     -0.38210118	      1.04678781	      0.35507575	     -5.66459152	      8.63318927	      1.05667977	     -7.14812664	      5.90948151	    -10.25718754	      2.15922297	     19.95792830	     -4.01698412	     -2.44190934	    -44.44051312	      4.91672730	     -8.02118669	      0.77464710	     -6.69358827	     -2.18548403	      2.91760088
      0.95033333	      4.19240579	     -1.55578019	      5.08346518	     -0.37731265	      1.04657329	      0.35548875	     -5.93896548	      8.58703721	      1.31428992	     -6.98696535	      6.05657886	    -10.17650661	      2.08724077	     20.11127363	     -3.94801909	     -2.67806677	    -42.96450936	      4.86571263	     -8.28286111	      0.67515272	     -6.59771092	     -2.22513105	      3.20181560
      0.95450000	      4.10267852	     -1.52803003	      4.81618081	     -0.37252856	      1.04635680	      0.35587957	     -6.23117786	      8.54192046	      1.57329148	     -6.82254716	      6.18791053	    -10.08078166	      2.00190666	     20.22608562	     -3.87603955	     -2.89585336	    -41.44562741	      4.80036085	     -8.56499558	      0.55796456	     -6.52877466	     -2.26816064	      3.51834091
